<svg width="537" height="150" viewBox="0 0 537 150" fill="none" xmlns="http://www.w3.org/2000/svg">
<path d="M263.2 81.3C263.2 82.8333 263.1 84.3667 262.9 85.9H225.8C226 88.9667 226.833 91.2667 228.3 92.8C229.833 94.2667 231.767 95 234.1 95C237.367 95 239.7 93.5333 241.1 90.6H262C261.133 94.4667 259.433 97.9333 256.9 101C254.433 104 251.3 106.367 247.5 108.1C243.7 109.833 239.5 110.7 234.9 110.7C229.367 110.7 224.433 109.533 220.1 107.2C215.833 104.867 212.467 101.533 210 97.2C207.6 92.8667 206.4 87.7667 206.4 81.9C206.4 76.0333 207.6 70.9667 210 66.7C212.4 62.3667 215.733 59.0333 220 56.7C224.333 54.3667 229.3 53.2 234.9 53.2C240.433 53.2 245.333 54.3333 249.6 56.6C253.867 58.8667 257.2 62.1333 259.6 66.4C262 70.6 263.2 75.5667 263.2 81.3ZM243.2 76.4C243.2 74 242.4 72.1333 240.8 70.8C239.2 69.4 237.2 68.7 234.8 68.7C232.4 68.7 230.433 69.3667 228.9 70.7C227.367 71.9667 226.367 73.8667 225.9 76.4H243.2ZM291.921 53.2C295.721 53.2 299.021 53.9667 301.821 55.5C304.688 57.0333 306.888 59.1 308.421 61.7V53.9H328.021V109.4C328.021 114.667 327.021 119.4 325.021 123.6C323.021 127.867 319.888 131.267 315.621 133.8C311.421 136.333 306.088 137.6 299.621 137.6C290.954 137.6 284.021 135.567 278.821 131.5C273.621 127.433 270.654 121.9 269.921 114.9H289.221C289.621 116.7 290.621 118.1 292.221 119.1C293.821 120.1 295.888 120.6 298.421 120.6C305.088 120.6 308.421 116.867 308.421 109.4V102.2C306.888 104.8 304.688 106.867 301.821 108.4C299.021 109.933 295.721 110.7 291.921 110.7C287.454 110.7 283.388 109.533 279.721 107.2C276.121 104.867 273.254 101.533 271.121 97.2C269.054 92.8 268.021 87.7 268.021 81.9C268.021 76.1 269.054 71.0333 271.121 66.7C273.254 62.3667 276.121 59.0333 279.721 56.7C283.388 54.3667 287.454 53.2 291.921 53.2ZM308.421 81.9C308.421 78.3 307.421 75.4667 305.421 73.4C303.488 71.3333 301.088 70.3 298.221 70.3C295.288 70.3 292.854 71.3333 290.921 73.4C288.988 75.4 288.021 78.2333 288.021 81.9C288.021 85.5 288.988 88.3667 290.921 90.5C292.854 92.5667 295.288 93.6 298.221 93.6C301.088 93.6 303.488 92.5667 305.421 90.5C307.421 88.4333 308.421 85.5667 308.421 81.9ZM375.89 53.4C382.357 53.4 387.49 55.5667 391.29 59.9C395.09 64.1667 396.99 69.9667 396.99 77.3V110H377.39V79.9C377.39 76.7 376.557 74.2 374.89 72.4C373.223 70.5333 370.99 69.6 368.19 69.6C365.257 69.6 362.957 70.5333 361.29 72.4C359.623 74.2 358.79 76.7 358.79 79.9V110H339.19V53.9H358.79V61.9C360.523 59.3667 362.857 57.3333 365.79 55.8C368.723 54.2 372.09 53.4 375.89 53.4ZM417.645 48.7C414.178 48.7 411.378 47.7667 409.245 45.9C407.178 43.9667 406.145 41.5667 406.145 38.7C406.145 35.7667 407.178 33.3333 409.245 31.4C411.378 29.4667 414.178 28.5 417.645 28.5C421.045 28.5 423.778 29.4667 425.845 31.4C427.978 33.3333 429.045 35.7667 429.045 38.7C429.045 41.5667 427.978 43.9667 425.845 45.9C423.778 47.7667 421.045 48.7 417.645 48.7ZM427.345 53.9V110H407.745V53.9H427.345ZM471.606 93.3V110H463.106C448.773 110 441.606 102.9 441.606 88.7V70.2H434.706V53.9H441.606V40.3H461.306V53.9H471.506V70.2H461.306V89C461.306 90.5333 461.64 91.6333 462.306 92.3C463.04 92.9667 464.24 93.3 465.906 93.3H471.606ZM534.196 81.3C534.196 82.8333 534.096 84.3667 533.896 85.9H496.796C496.996 88.9667 497.829 91.2667 499.296 92.8C500.829 94.2667 502.763 95 505.096 95C508.363 95 510.696 93.5333 512.096 90.6H532.996C532.129 94.4667 530.429 97.9333 527.896 101C525.429 104 522.296 106.367 518.496 108.1C514.696 109.833 510.496 110.7 505.896 110.7C500.363 110.7 495.429 109.533 491.096 107.2C486.829 104.867 483.463 101.533 480.996 97.2C478.596 92.8667 477.396 87.7667 477.396 81.9C477.396 76.0333 478.596 70.9667 480.996 66.7C483.396 62.3667 486.729 59.0333 490.996 56.7C495.329 54.3667 500.296 53.2 505.896 53.2C511.429 53.2 516.329 54.3333 520.596 56.6C524.863 58.8667 528.196 62.1333 530.596 66.4C532.996 70.6 534.196 75.5667 534.196 81.3ZM514.196 76.4C514.196 74 513.396 72.1333 511.796 70.8C510.196 69.4 508.196 68.7 505.796 68.7C503.396 68.7 501.429 69.3667 499.896 70.7C498.363 71.9667 497.363 73.8667 496.896 76.4H514.196Z" fill="white"/>
<circle cx="61.3315" cy="75.3315" r="61.3315" fill="white"/>
<rect x="31.0708" y="77.3759" width="134.929" height="59.287" rx="29.6435" fill="white" fill-opacity="0.76"/>
</svg>
